<svg xmlns="http://www.w3.org/2000/svg" width="36.438" height="41.643" viewBox="0 0 36.438 41.643">
  <path id="Icon_awesome-calendar-plus" data-name="Icon awesome-calendar-plus" d="M35.461,13.013H.976A.979.979,0,0,1,0,12.037V9.109a3.905,3.905,0,0,1,3.9-3.9h3.9V.976A.979.979,0,0,1,8.784,0h3.253a.979.979,0,0,1,.976.976V5.205H23.424V.976A.979.979,0,0,1,24.4,0h3.253a.979.979,0,0,1,.976.976V5.205h3.9a3.905,3.905,0,0,1,3.9,3.9v2.928A.979.979,0,0,1,35.461,13.013ZM.976,15.616H35.461a.979.979,0,0,1,.976.976V37.739a3.905,3.905,0,0,1-3.9,3.9H3.9a3.905,3.905,0,0,1-3.9-3.9V16.592A.979.979,0,0,1,.976,15.616ZM26.677,27a.979.979,0,0,0-.976-.976h-4.88v-4.88a.979.979,0,0,0-.976-.976H16.592a.979.979,0,0,0-.976.976v4.88h-4.88A.979.979,0,0,0,9.76,27v3.253a.979.979,0,0,0,.976.976h4.88v4.88a.979.979,0,0,0,.976.976h3.253a.979.979,0,0,0,.976-.976v-4.88H25.7a.979.979,0,0,0,.976-.976Z" fill="#4e0b6c"/>
</svg>
