<?xml version="1.0" encoding="utf-8"?>
<!-- Generator: Adobe Illustrator 25.2.3, SVG Export Plug-In . SVG Version: 6.00 Build 0)  -->
<svg version="1.1" id="Capa_1" xmlns="http://www.w3.org/2000/svg" xmlns:xlink="http://www.w3.org/1999/xlink" x="0px" y="0px"
	 viewBox="0 0 512 512" style="enable-background:new 0 0 512 512;" xml:space="preserve">
<style type="text/css">
	.st0{fill:#F4F4F4;}
	.st1{fill:#BABABA;}
</style>
<path class="st0" d="M461.1,60.9L260.3,0.6c-2.8-0.8-5.8-0.8-8.6,0L50.9,60.9c-6.3,1.9-10.7,7.7-10.7,14.4v220.9
	c0,28.7,11.6,58.1,34.6,87.4c17.5,22.4,41.8,44.8,72,66.7c50.9,36.8,101,59.4,103.1,60.4c1.9,0.9,4,1.3,6.1,1.3
	c2.1,0,4.2-0.4,6.1-1.3c2.1-0.9,52.2-23.5,103.1-60.4c30.3-21.9,54.5-44.4,72-66.7c22.9-29.3,34.6-58.7,34.6-87.4V75.2
	C471.8,68.6,467.5,62.8,461.1,60.9z"/>
<path class="st1" d="M461.1,60.9L260.3,0.6C258.9,0.2,257.5,0,256,0v512h0c2.1,0,4.2-0.4,6.1-1.3c2.1-0.9,52.2-23.5,103.1-60.4
	c30.3-21.9,54.5-44.4,72-66.7c22.9-29.3,34.6-58.7,34.6-87.4V75.2C471.8,68.6,467.5,62.8,461.1,60.9z"/>
</svg>
