<svg id="Calque_2" data-name="Calque 2" xmlns="http://www.w3.org/2000/svg" width="18.322" height="16.575" viewBox="0 0 18.322 16.575">
  <g id="Calque_1" data-name="Calque 1" transform="translate(0 0)">
    <path id="Tracé_2396" data-name="Tracé 2396" d="M5.022,9.4A2.008,2.008,0,0,1,6.166,8.033a2.831,2.831,0,0,1,2.008,0,5.864,5.864,0,0,1,2.952,2.41,3.735,3.735,0,0,1,0,4.016A3.655,3.655,0,0,1,9.48,15.884a8.815,8.815,0,0,1-2.008.582,7.631,7.631,0,0,1-4.016-.4A5.6,5.6,0,0,1,.484,13.133a11.607,11.607,0,0,1,.5-7.892A9.117,9.117,0,0,1,2.994,1.667,5.4,5.4,0,0,1,7.01,0a11.1,11.1,0,0,1,7.028,3.414A15,15,0,0,1,18.054,9.84a6.627,6.627,0,0,1,0,3.855,4.639,4.639,0,0,1-2.47,2.751,4.839,4.839,0,0,0,2.008-2.892,6.225,6.225,0,0,0-.4-3.414,14.056,14.056,0,0,0-4.217-5.582A10.04,10.04,0,0,0,6.95,2.009c-2.129,0-3.434,1.707-4.016,4.016a10.04,10.04,0,0,0-.622,6.526A4.779,4.779,0,0,0,7.411,15a3.755,3.755,0,0,0,2.771-1.185,2.631,2.631,0,0,0,0-2.892,5.241,5.241,0,0,0-2.169-2.43,2.47,2.47,0,0,0-1.647-.261A2.008,2.008,0,0,0,5.022,9.4Z" transform="translate(-0.018 0.001)" fill="#fff"/>
  </g>
</svg>
